# xmcd
#
# Track frame offsets:
#	182
#	14019
#	27952
#	37736
#	46728
#	77377
#	90688
#	104784
#	117682
#	131578
#	144668
#	157738
#	172260
#	184642
#	195618
#	218983
#	232306
#	246900
#	261303
#	273868
#
# Disc length: 3852 seconds
#
# Revision: 1
# Processed by: cddbd v1.5.2PL0 Copyright (c) Steve Scherf et al.
# Submitted via: EasyCDDAExtractor 10.0.2.1
#
DISCID=200f0a14
DTITLE=Yves Montand - Les Feuilles Mortes [CD1)
DYEAR=2000
DGENRE=Classic
TTITLE0=Elle A ...
TTITLE1=Il Fait Des ...
TTITLE2=Dans Les Plaines Du Far-West
TTITLE3=Luna Park
TTITLE4=Les Portes De La Nuit
TTITLE5=Moi,J'm'en Fous (Version 1)
TTITLE6=Ainsi Va La Vie
TTITLE7=Il Chantait
TTITLE8=Moi,J'm'en Fous (Version 2)
TTITLE9=La Grande Cite
TTITLE10=Battling Joe
TTITLE11=La Legende Du Boogie-Woogie
TTITLE12=Mais Qu'est Ce Que J'ai ?
TTITLE13=Ma Gosse Ma P'tite Mome
TTITLE14=Ce Monsieur-La
TTITLE15=Je Suis Venu A Pied
TTITLE16=Ma Douce Vallee
TTITLE17=Mathilda
TTITLE18=Un P'tit Bock
TTITLE19=Clopin- Clopant
EXTD=
EXTT0=
EXTT1=
EXTT2=
EXTT3=
EXTT4=
EXTT5=
EXTT6=
EXTT7=
EXTT8=
EXTT9=
EXTT10=
EXTT11=
EXTT12=
EXTT13=
EXTT14=
EXTT15=
EXTT16=
EXTT17=
EXTT18=
EXTT19=
PLAYORDER=
